<?xml version="1.0" encoding="utf-8"?>
<!-- Generator: Adobe Illustrator 23.0.1, SVG Export Plug-In . SVG Version: 6.00 Build 0)  -->
<svg version="1.1" xmlns="http://www.w3.org/2000/svg" xmlns:xlink="http://www.w3.org/1999/xlink" x="0px" y="0px"
	 viewBox="0 0 500 500" style="enable-background:new 0 0 500 500;" xml:space="preserve">
<style type="text/css">
	.st0{fill:none;}
	.st1{fill:none;stroke:#B3E2D4;stroke-linecap:round;stroke-linejoin:round;stroke-miterlimit:10;}
	.st2{fill:url(#Motivo_nuevo_2);}
</style>
<pattern  width="143.03" height="131.56" patternUnits="userSpaceOnUse" id="Motivo_nuevo_2" viewBox="0 -131.56 143.03 131.56" style="overflow:visible;">
	<g>
		<rect y="-131.56" class="st0" width="143.03" height="131.56"/>
		<g>
			<path class="st1" d="M131.24-19.56c0,0.71-0.29,1.35-0.75,1.82c-0.47,0.46-1.11,0.75-1.82,0.75l-78.15-0.09
				c-0.16,0-0.32,0.01-0.47,0.04l-15.96,3.02L6.33-14.05c-1.42,0-2.57-1.15-2.57-2.57c0.01-0.71,0.29-1.35,0.76-1.82
				c0.19-0.19,0.41-0.34,0.65-0.47c0.35-0.18,0.75-0.28,1.17-0.28l24.94,0.03h2.81l16.49-3.02c0.15-0.03,0.3-0.04,0.45-0.04
				l77.64,0.09C130.09-22.13,131.24-20.98,131.24-19.56z"/>
			<path class="st1" d="M32.31-26.2c-0.13,1.17-0.26,2.34-0.39,3.51c-0.11,0.98-0.09,2.08-0.41,3.01c-0.07,0.2-0.14,0.37-0.23,0.52
				L6.34-19.19c-0.42,0-0.82,0.1-1.17,0.28c-0.92-0.85-0.7-3.31-0.84-4.48c-0.11-1.07-0.23-2.14-0.35-3.21
				c-0.08-0.74,0.73-1.23,1.35-0.83l0.26,0.17c0.12,0.08,0.27,0.04,0.34-0.08l0.7-1.2c0.09-0.16,0.31-0.16,0.41,0l0.61,1.07
				c0.09,0.16,0.32,0.16,0.41,0l0.62-1.07c0.09-0.16,0.32-0.16,0.41,0l0.62,1.07c0.09,0.16,0.32,0.16,0.41,0l0.62-1.07
				c0.09-0.16,0.32-0.16,0.41,0l0.61,1.07c0.1,0.16,0.32,0.16,0.41,0l0.62-1.07c0.09-0.15,0.32-0.15,0.41,0l0.62,1.08
				c0.09,0.15,0.32,0.15,0.41,0l0.62-1.07c0.09-0.16,0.32-0.16,0.41,0l0.62,1.07c0.09,0.16,0.32,0.16,0.41,0l0.62-1.07
				c0.09-0.16,0.31-0.16,0.41,0l0.61,1.07c0.09,0.16,0.32,0.16,0.41,0l0.62-1.07c0.09-0.16,0.32-0.16,0.41,0l0.62,1.07
				c0.09,0.16,0.32,0.16,0.41,0l0.62-1.07c0.09-0.15,0.32-0.15,0.41,0l0.61,1.07c0.1,0.16,0.32,0.16,0.41,0l0.62-1.06
				c0.09-0.16,0.32-0.16,0.41,0l0.62,1.07c0.09,0.15,0.32,0.16,0.41,0l0.62-1.07c0.09-0.16,0.32-0.16,0.41,0l0.62,1.07
				c0.09,0.16,0.32,0.16,0.41,0l0.62-1.07c0.09-0.16,0.31-0.16,0.41,0l0.61,1.07c0.09,0.16,0.32,0.16,0.41,0l0.62-1.07
				c0.09-0.15,0.32-0.15,0.41,0l0.7,1.22c0.07,0.11,0.22,0.15,0.33,0.08C31.44-27.7,32.41-27.09,32.31-26.2z"/>
			<path class="st1" d="M24.54-31.85c-1.12-2.26-6.14,1.16-7.84,1.55c-2.1,0.48-4.27,0.16-6.23-0.69c-3.45-1.51-6.66-4.93-5.69-8.91
				c0.01-0.04,0.02-0.08,0.04-0.12c0.31-0.83,1.5-1.07,2.1-0.4c1.81,1.99,3.18,4.03,6.08,4.41c2.8,0.37,4.71-1.65,7.24-2.4
				c3.59-1.07,8.09-0.27,9.88,3.29c0.03,0.04,0.05,0.09,0.07,0.13C31.97-31.25,26.4-28.11,24.54-31.85z"/>
			<path class="st1" d="M30.12-35.12c-0.62,1.08-1.81,1.95-3.03,1.46c-1.16-0.46-2.08-1.46-3.3-1.78c-2.49-0.65-4.81,1.47-7.09,1.99
				c-2.1,0.48-4.27,0.16-6.23-0.7c-2.54-1.11-4.94-3.24-5.65-5.88c0.31-0.83,1.5-1.07,2.1-0.4c1.81,1.99,3.18,4.03,6.08,4.41
				c2.8,0.37,4.71-1.65,7.24-2.4C23.83-39.48,28.33-38.68,30.12-35.12z"/>
			<g>
				<line class="st1" x1="6.34" y1="-24.84" x2="6.34" y2="-21.76"/>
				<line class="st1" x1="10.97" y1="-24.84" x2="10.97" y2="-21.75"/>
				<line class="st1" x1="13.42" y1="-24.84" x2="13.41" y2="-21.75"/>
				<line class="st1" x1="8.71" y1="-24.84" x2="8.71" y2="-21.75"/>
				<line class="st1" x1="15.6" y1="-24.83" x2="15.59" y2="-21.75"/>
				<line class="st1" x1="20.22" y1="-24.83" x2="20.22" y2="-21.74"/>
				<line class="st1" x1="24.85" y1="-24.82" x2="24.84" y2="-21.74"/>
				<line class="st1" x1="17.8" y1="-24.83" x2="17.8" y2="-21.75"/>
				<line class="st1" x1="22.43" y1="-24.83" x2="22.43" y2="-21.74"/>
				<line class="st1" x1="27.05" y1="-24.82" x2="27.05" y2="-21.74"/>
				<line class="st1" x1="29.47" y1="-24.81" x2="29.47" y2="-21.73"/>
			</g>
		</g>
		<path class="st1" d="M108.62-90.61c-1.88-0.44-3.95-0.12-5.52,0.98s-2.59,3.02-2.47,4.95c0.13,1.94,1.31,3.62,2.3,5.28
			c1.43,2.39,2.55,4.97,3.34,7.64c0.25,0.87,0.49,1.78,1.07,2.47s1.64,1.08,2.42,0.61c1.01-0.61,1.2-2.4,2.39-2.47
			c0.61-0.03,1.11,0.47,1.45,0.98c0.33,0.51,0.61,1.1,1.12,1.43c0.56,0.35,1.32,0.31,1.9-0.01s1.02-0.85,1.34-1.44
			c0.95-1.73,0.95-3.84,1.73-5.65c0.39-0.9,0.95-1.7,1.46-2.54c1.08-1.79,1.89-3.78,2.03-5.86c0.13-2.08-0.48-4.27-1.92-5.77
			c-1.45-1.5-3.78-2.2-5.73-1.44c-1.07,0.42-2.01,1.39-3.14,1.62C111.15-89.55,109.81-90.33,108.62-90.61z"/>
		<polygon class="st1" points="26.38,-102.56 20.04,-102.56 20.04,-108.9 15.56,-108.9 15.56,-102.56 9.22,-102.56 9.22,-98.08 
			15.56,-98.08 15.56,-91.74 20.04,-91.74 20.04,-98.08 26.38,-98.08 		"/>
		<polygon class="st1" points="95.26,-57.28 88.92,-57.19 88.83,-63.53 84.34,-63.46 84.43,-57.12 78.1,-57.02 78.16,-52.54 
			84.5,-52.63 84.6,-46.29 89.09,-46.36 88.99,-52.7 95.33,-52.8 		"/>
		<g>
			<path class="st1" d="M71.56-82.9c0,0-10.32-7.88-17.08-3c-6.76-4.88-17.08,3-17.08,3s4.69,6.57,17.08,6.57S71.56-82.9,71.56-82.9
				z"/>
			<path class="st1" d="M37.4-82.9c0,0,17.83,3.94,34.16,0"/>
		</g>
		<g>
			<path class="st1" d="M128.99-126.46c-16.34,3.94-34.17,0-34.17,0s10.33-7.88,17.08-3C118.66-134.34,128.99-126.46,128.99-126.46z
				"/>
			<path class="st1" d="M128.99-126.46c0,0,0.34,20.46-17.08,20.46s-17.08-20.46-17.08-20.46v0.19c0,0,1.49,16.19,17.08,16.19
				S128.99-126.46,128.99-126.46L128.99-126.46z"/>
			<g>
				<path class="st1" d="M94.82-126.27l1.33,5.35c0,0,1.92,2.06,5.18,0.47v-4.94"/>
				<path class="st1" d="M101.33-125.34v4.53c0,0,1.04,1.31,5.29,0.69v-4.61"/>
				<path class="st1" d="M106.62-124.74v4.61c0,0,2.64,1.17,5.29,0v-4.59"/>
				<path class="st1" d="M128.99-126.27l-1.33,5.35c0,0-1.92,2.06-5.18,0.47v-4.83"/>
				<path class="st1" d="M122.48-124.35v3.54c0,0-1.04,1.31-5.29,0.69v-4.61"/>
				<path class="st1" d="M117.19-124.74v4.61c0,0-2.64,1.17-5.29,0v-4.59"/>
			</g>
			<g>
				<path class="st1" d="M99.69-115.15v-2.06c0,0,2.24-0.84,4.24,0.8v4.27"/>
				<path class="st1" d="M103.93-112.19v-4.23c0,0,1.73-0.84,3.99,0.3v3.48"/>
				<path class="st1" d="M107.92-110.48v-5.64c0,0,1.99-0.6,3.99,0.28v5.76"/>
			</g>
			<g>
				<path class="st1" d="M124.12-115.15v-2.06c0,0-2.24-0.84-4.24,0.8v4.27"/>
				<path class="st1" d="M119.88-112.19v-4.23c0,0-1.73-0.84-3.99,0.3v3.48"/>
				<path class="st1" d="M115.89-110.48v-5.64c0,0-1.99-0.6-3.99,0.28v5.76"/>
			</g>
		</g>
		<g>
			<line class="st1" x1="37.29" y1="-116.06" x2="37.29" y2="-110.34"/>
			<line class="st1" x1="40.25" y1="-113.09" x2="34.54" y2="-113.09"/>
		</g>
		<g>
			<line class="st1" x1="26.95" y1="-66.38" x2="26.95" y2="-60.67"/>
			<line class="st1" x1="29.91" y1="-63.42" x2="24.2" y2="-63.42"/>
		</g>
		<g>
			<line class="st1" x1="75.96" y1="-108.86" x2="75.96" y2="-103.14"/>
			<line class="st1" x1="78.92" y1="-105.89" x2="73.21" y2="-105.89"/>
		</g>
		<g>
			<line class="st1" x1="67.39" y1="-40.81" x2="67.39" y2="-35.09"/>
			<line class="st1" x1="70.36" y1="-37.84" x2="64.64" y2="-37.84"/>
		</g>
		<g>
			<line class="st1" x1="131.13" y1="-71.33" x2="131.13" y2="-65.62"/>
			<line class="st1" x1="134.1" y1="-68.37" x2="128.38" y2="-68.37"/>
		</g>
		<g>
			<line class="st1" x1="59.25" y1="-6.21" x2="59.25" y2="-0.5"/>
			<line class="st1" x1="62.21" y1="-3.25" x2="56.5" y2="-3.25"/>
		</g>
	</g>
</pattern>
<g id="PATTERN">
	<g>
		<rect class="st2" width="500" height="500"/>
	</g>
</g>
<g id="DESIGNED_BY_FREEPIK">
</g>
</svg>
